{
    "asset" : {
        "generator" : "Khronos glTF Blender I/O v1.7.33",
        "version" : "2.0"
    },
    "extensionsUsed" : [
        "KHR_materials_clearcoat"
    ],
    "scene" : 0,
    "scenes" : [
        {
            "name" : "Scene",
            "nodes" : [
                0
            ]
        }
    ],
    "nodes" : [
        {
            "mesh" : 0,
            "name" : "Lead",
            "translation" : [
                0,
                0.004999999888241291,
                0
            ]
        }
    ],
    "materials" : [
        {
            "doubleSided" : true,
            "extensions" : {
                "KHR_materials_clearcoat" : {
                    "clearcoatFactor" : 0.1568630039691925,
                    "clearcoatRoughnessFactor" : 0.029999999329447746
                }
            },
            "name" : "top",
            "pbrMetallicRoughness" : {
                "baseColorTexture" : {
                    "index" : 0
                },
                "metallicFactor" : 0,
                "roughnessFactor" : 0.30000001192092896
            }
        },
        {
            "doubleSided" : true,
            "name" : "side_2",
            "pbrMetallicRoughness" : {
                "baseColorTexture" : {
                    "index" : 1
                },
                "metallicFactor" : 0,
                "roughnessFactor" : 0.5
            }
        },
        {
            "doubleSided" : true,
            "name" : "side_1",
            "pbrMetallicRoughness" : {
                "baseColorTexture" : {
                    "index" : 2
                },
                "metallicFactor" : 0,
                "roughnessFactor" : 0.5
            }
        },
        {
            "doubleSided" : true,
            "name" : "base",
            "pbrMetallicRoughness" : {
                "baseColorFactor" : [
                    0.44520121812820435,
                    0.4178851246833801,
                    0.38642948865890503,
                    1
                ],
                "metallicFactor" : 0,
                "roughnessFactor" : 0.5
            }
        }
    ],
    "meshes" : [
        {
            "name" : "Plane.001",
            "primitives" : [
                {
                    "attributes" : {
                        "POSITION" : 0,
                        "NORMAL" : 1,
                        "TEXCOORD_0" : 2
                    },
                    "indices" : 3,
                    "material" : 0
                },
                {
                    "attributes" : {
                        "POSITION" : 4,
                        "NORMAL" : 5,
                        "TEXCOORD_0" : 6
                    },
                    "indices" : 7,
                    "material" : 1
                },
                {
                    "attributes" : {
                        "POSITION" : 8,
                        "NORMAL" : 9,
                        "TEXCOORD_0" : 10
                    },
                    "indices" : 11,
                    "material" : 2
                },
                {
                    "attributes" : {
                        "POSITION" : 12,
                        "NORMAL" : 13,
                        "TEXCOORD_0" : 14
                    },
                    "indices" : 15,
                    "material" : 3
                }
            ]
        }
    ],
    "textures" : [
        {
            "sampler" : 0,
            "source" : 0
        },
        {
            "sampler" : 0,
            "source" : 1
        },
        {
            "sampler" : 0,
            "source" : 2
        }
    ],
    "images" : [
        {
            "bufferView" : 4,
            "mimeType" : "image/jpeg",
            "name" : "top"
        },
        {
            "bufferView" : 9,
            "mimeType" : "image/jpeg",
            "name" : "side2"
        },
        {
            "bufferView" : 14,
            "mimeType" : "image/jpeg",
            "name" : "side1"
        }
    ],
    "accessors" : [
        {
            "bufferView" : 0,
            "componentType" : 5126,
            "count" : 4,
            "max" : [
                0.20100000500679016,
                0.07999999821186066,
                0.20100000500679016
            ],
            "min" : [
                -0.20100000500679016,
                0.07999999821186066,
                -0.20100000500679016
            ],
            "type" : "VEC3"
        },
        {
            "bufferView" : 1,
            "componentType" : 5126,
            "count" : 4,
            "type" : "VEC3"
        },
        {
            "bufferView" : 2,
            "componentType" : 5126,
            "count" : 4,
            "type" : "VEC2"
        },
        {
            "bufferView" : 3,
            "componentType" : 5123,
            "count" : 6,
            "type" : "SCALAR"
        },
        {
            "bufferView" : 5,
            "componentType" : 5126,
            "count" : 8,
            "max" : [
                0.20100000500679016,
                0.07999999821186066,
                0.20100000500679016
            ],
            "min" : [
                -0.20100000500679016,
                0,
                -0.20100000500679016
            ],
            "type" : "VEC3"
        },
        {
            "bufferView" : 6,
            "componentType" : 5126,
            "count" : 8,
            "type" : "VEC3"
        },
        {
            "bufferView" : 7,
            "componentType" : 5126,
            "count" : 8,
            "type" : "VEC2"
        },
        {
            "bufferView" : 8,
            "componentType" : 5123,
            "count" : 12,
            "type" : "SCALAR"
        },
        {
            "bufferView" : 10,
            "componentType" : 5126,
            "count" : 8,
            "max" : [
                0.20100000500679016,
                0.07999999821186066,
                0.20100000500679016
            ],
            "min" : [
                -0.20100000500679016,
                0,
                -0.20100000500679016
            ],
            "type" : "VEC3"
        },
        {
            "bufferView" : 11,
            "componentType" : 5126,
            "count" : 8,
            "type" : "VEC3"
        },
        {
            "bufferView" : 12,
            "componentType" : 5126,
            "count" : 8,
            "type" : "VEC2"
        },
        {
            "bufferView" : 13,
            "componentType" : 5123,
            "count" : 12,
            "type" : "SCALAR"
        },
        {
            "bufferView" : 15,
            "componentType" : 5126,
            "count" : 30,
            "max" : [
                0.20100000500679016,
                0.07500000298023224,
                0.20100000500679016
            ],
            "min" : [
                -0.20100000500679016,
                0,
                -0.20100000500679016
            ],
            "type" : "VEC3"
        },
        {
            "bufferView" : 16,
            "componentType" : 5126,
            "count" : 30,
            "type" : "VEC3"
        },
        {
            "bufferView" : 17,
            "componentType" : 5126,
            "count" : 30,
            "type" : "VEC2"
        },
        {
            "bufferView" : 18,
            "componentType" : 5123,
            "count" : 54,
            "type" : "SCALAR"
        }
    ],
    "bufferViews" : [
        {
            "buffer" : 0,
            "byteLength" : 48,
            "byteOffset" : 0
        },
        {
            "buffer" : 0,
            "byteLength" : 48,
            "byteOffset" : 48
        },
        {
            "buffer" : 0,
            "byteLength" : 32,
            "byteOffset" : 96
        },
        {
            "buffer" : 0,
            "byteLength" : 12,
            "byteOffset" : 128
        },
        {
            "buffer" : 0,
            "byteLength" : 204666,
            "byteOffset" : 140
        },
        {
            "buffer" : 0,
            "byteLength" : 96,
            "byteOffset" : 204808
        },
        {
            "buffer" : 0,
            "byteLength" : 96,
            "byteOffset" : 204904
        },
        {
            "buffer" : 0,
            "byteLength" : 64,
            "byteOffset" : 205000
        },
        {
            "buffer" : 0,
            "byteLength" : 24,
            "byteOffset" : 205064
        },
        {
            "buffer" : 0,
            "byteLength" : 91082,
            "byteOffset" : 205088
        },
        {
            "buffer" : 0,
            "byteLength" : 96,
            "byteOffset" : 296172
        },
        {
            "buffer" : 0,
            "byteLength" : 96,
            "byteOffset" : 296268
        },
        {
            "buffer" : 0,
            "byteLength" : 64,
            "byteOffset" : 296364
        },
        {
            "buffer" : 0,
            "byteLength" : 24,
            "byteOffset" : 296428
        },
        {
            "buffer" : 0,
            "byteLength" : 92924,
            "byteOffset" : 296452
        },
        {
            "buffer" : 0,
            "byteLength" : 360,
            "byteOffset" : 389376
        },
        {
            "buffer" : 0,
            "byteLength" : 360,
            "byteOffset" : 389736
        },
        {
            "buffer" : 0,
            "byteLength" : 240,
            "byteOffset" : 390096
        },
        {
            "buffer" : 0,
            "byteLength" : 108,
            "byteOffset" : 390336
        }
    ],
    "samplers" : [
        {
            "magFilter" : 9729,
            "minFilter" : 9987
        }
    ],
    "buffers" : [
        {
            "byteLength" : 390444,
            "uri" : "data:application/octet-stream;base64,"
        }
    ]
}
