{
    "asset" : {
        "generator" : "Khronos glTF Blender I/O v1.7.33",
        "version" : "2.0"
    },
    "extensionsUsed" : [
        "KHR_materials_clearcoat"
    ],
    "scene" : 0,
    "scenes" : [
        {
            "name" : "Scene",
            "nodes" : [
                0,
                1
            ]
        }
    ],
    "nodes" : [
        {
            "mesh" : 0,
            "name" : "Starship Fusealage",
            "rotation" : [
                0.0017330673290416598,
                0,
                0,
                1
            ],
            "scale" : [
                1.1287651062011719,
                1.1287651062011719,
                1.1287651062011719
            ],
            "translation" : [
                0,
                9.967802047729492,
                -0.26547181606292725
            ]
        },
        {
            "mesh" : 1,
            "name" : "Starship Fusealage.001",
            "rotation" : [
                0.0017330673290416598,
                0,
                0,
                1
            ],
            "scale" : [
                1.1287651062011719,
                1.1287651062011719,
                1.1287651062011719
            ],
            "translation" : [
                0,
                9.967802047729492,
                -0.26547181606292725
            ]
        }
    ],
    "materials" : [
        {
            "doubleSided" : true,
            "extensions" : {
                "KHR_materials_clearcoat" : {
                    "clearcoatFactor" : 0.1568627506494522,
                    "clearcoatRoughnessFactor" : 0.22607840597629547
                }
            },
            "name" : "Aluminium",
            "pbrMetallicRoughness" : {
                "baseColorTexture" : {
                    "index" : 0
                },
                "roughnessFactor" : 0.18627449870109558
            }
        },
        {
            "doubleSided" : true,
            "name" : "Thermal tile",
            "pbrMetallicRoughness" : {
                "baseColorFactor" : [
                    1,
                    1,
                    1,
                    0.5
                ],
                "baseColorTexture" : {
                    "index" : 1
                },
                "metallicFactor" : 0.27165353298187256,
                "roughnessFactor" : 0.800000011920929
            }
        }
    ],
    "meshes" : [
        {
            "name" : "Cylinder",
            "primitives" : [
                {
                    "attributes" : {
                        "POSITION" : 0,
                        "NORMAL" : 1,
                        "TEXCOORD_0" : 2
                    },
                    "indices" : 3,
                    "material" : 0
                }
            ]
        },
        {
            "name" : "Cylinder.006",
            "primitives" : [
                {
                    "attributes" : {
                        "POSITION" : 4,
                        "NORMAL" : 5,
                        "TEXCOORD_0" : 6
                    },
                    "indices" : 7,
                    "material" : 1
                }
            ]
        }
    ],
    "textures" : [
        {
            "sampler" : 0,
            "source" : 0
        },
        {
            "sampler" : 0,
            "source" : 1
        }
    ],
    "images" : [
        {
            "bufferView" : 4,
            "mimeType" : "image/jpeg",
            "name" : "aluminium"
        },
        {
            "bufferView" : 9,
            "mimeType" : "image/jpeg",
            "name" : "tile_texture_black"
        }
    ],
    "accessors" : [
        {
            "bufferView" : 0,
            "componentType" : 5126,
            "count" : 1773,
            "max" : [
                1.000000238418579,
                2.6789581775665283,
                0.9999997615814209
            ],
            "min" : [
                -0.9999997615814209,
                -8.524989128112793,
                -1.000000238418579
            ],
            "type" : "VEC3"
        },
        {
            "bufferView" : 1,
            "componentType" : 5126,
            "count" : 1773,
            "type" : "VEC3"
        },
        {
            "bufferView" : 2,
            "componentType" : 5126,
            "count" : 1773,
            "type" : "VEC2"
        },
        {
            "bufferView" : 3,
            "componentType" : 5123,
            "count" : 8052,
            "type" : "SCALAR"
        },
        {
            "bufferView" : 5,
            "componentType" : 5126,
            "count" : 775,
            "max" : [
                0.014657644554972649,
                2.6789581775665283,
                0.9999997615814209
            ],
            "min" : [
                -0.9999997615814209,
                -8.524989128112793,
                -1.000000238418579
            ],
            "type" : "VEC3"
        },
        {
            "bufferView" : 6,
            "componentType" : 5126,
            "count" : 775,
            "type" : "VEC3"
        },
        {
            "bufferView" : 7,
            "componentType" : 5126,
            "count" : 775,
            "type" : "VEC2"
        },
        {
            "bufferView" : 8,
            "componentType" : 5123,
            "count" : 3534,
            "type" : "SCALAR"
        }
    ],
    "bufferViews" : [
        {
            "buffer" : 0,
            "byteLength" : 21276,
            "byteOffset" : 0
        },
        {
            "buffer" : 0,
            "byteLength" : 21276,
            "byteOffset" : 21276
        },
        {
            "buffer" : 0,
            "byteLength" : 14184,
            "byteOffset" : 42552
        },
        {
            "buffer" : 0,
            "byteLength" : 16104,
            "byteOffset" : 56736
        },
        {
            "buffer" : 0,
            "byteLength" : 2639,
            "byteOffset" : 72840
        },
        {
            "buffer" : 0,
            "byteLength" : 9300,
            "byteOffset" : 75480
        },
        {
            "buffer" : 0,
            "byteLength" : 9300,
            "byteOffset" : 84780
        },
        {
            "buffer" : 0,
            "byteLength" : 6200,
            "byteOffset" : 94080
        },
        {
            "buffer" : 0,
            "byteLength" : 7068,
            "byteOffset" : 100280
        },
        {
            "buffer" : 0,
            "byteLength" : 66006,
            "byteOffset" : 107348
        }
    ],
    "samplers" : [
        {
            "magFilter" : 9729,
            "minFilter" : 9987
        }
    ],
    "buffers" : [
        {
            "byteLength" : 173356,
            "uri" : "data:application/octet-stream;base64,"
        }
    ]
}
